<?xml version="1.0" standalone="no"?>
<!DOCTYPE svg PUBLIC "-//W3C//DTD SVG 20010904//EN"
 "http://www.w3.org/TR/2001/REC-SVG-20010904/DTD/svg10.dtd">
<svg version="1.0" xmlns="http://www.w3.org/2000/svg"
 width="500.000000pt" height="500.000000pt" viewBox="0 0 500.000000 500.000000"
 preserveAspectRatio="xMidYMid meet">
<metadata>
Created by potrace 1.14, written by Peter Selinger 2001-2017
</metadata>
<g transform="translate(0.000000,500.000000) scale(0.100000,-0.100000)"
fill="#000000" stroke="none">
<path d="M713 4017 c3 -8 70 -99 150 -204 l145 -190 -269 -1234 c-148 -679
-269 -1235 -269 -1237 0 -1 163 -1 362 0 l362 3 151 687 c82 379 152 688 155
688 3 0 118 -319 255 -710 165 -468 252 -703 257 -692 4 9 127 565 273 1235
l266 1219 -25 36 c-14 21 -57 77 -95 125 -53 67 -71 84 -74 70 -3 -10 -49
-220 -102 -468 -54 -247 -100 -453 -104 -457 -3 -4 -82 237 -175 535 -93 298
-175 557 -182 575 l-13 32 -537 0 c-443 0 -535 -2 -531 -13z"/>
<path d="M2514 3811 l154 -199 -269 -1228 c-148 -676 -269 -1235 -269 -1241 0
-10 78 -13 355 -13 l355 0 5 23 c3 12 50 229 105 482 l100 460 -45 162 c-25
90 -45 170 -45 178 0 8 41 43 92 77 51 35 95 65 99 68 4 3 48 194 98 425 51
231 94 428 97 438 5 16 27 17 290 17 223 0 284 -3 284 -13 0 -24 -161 -752
-168 -759 -4 -4 -142 -75 -307 -159 -165 -84 -301 -153 -302 -153 -2 -1 156
-568 159 -572 3 -2 1087 532 1094 539 1 1 76 338 165 749 l163 747 -18 39
c-25 56 -86 112 -132 123 -22 5 -518 9 -1126 9 l-1088 0 154 -199z"/>
<path d="M2044 1005 c4 -14 16 -50 27 -80 l20 -55 102 77 c56 42 104 78 106
80 2 1 -55 3 -128 3 l-133 0 6 -25z"/>
</g>
</svg>
