<?xml version="1.0" encoding="UTF-8"?>
<svg version="1.1" xmlns="http://www.w3.org/2000/svg" width="100" height="100">
<path d="M0 0 C33 0 66 0 100 0 C100 33 100 66 100 100 C67 100 34 100 0 100 C0 67 0 34 0 0 Z " fill="#FDFDFD" transform="translate(0,0)"/>
<path d="M0 0 C6.39037231 -0.02527062 12.78073183 -0.04283317 19.17114258 -0.05493164 C21.34692873 -0.05997308 23.52271147 -0.06680607 25.69848633 -0.07543945 C28.81853067 -0.08751338 31.93853038 -0.09323005 35.05859375 -0.09765625 C36.52733192 -0.10539818 36.52733192 -0.10539818 38.02574158 -0.11329651 C39.37702904 -0.11340981 39.37702904 -0.11340981 40.75561523 -0.11352539 C41.95141457 -0.11685631 41.95141457 -0.11685631 43.17137146 -0.12025452 C45 0 45 0 46 1 C46.46126479 7.43109566 45.10348364 13.42269122 43.75 19.6875 C43.54503906 20.71939453 43.34007812 21.75128906 43.12890625 22.81445312 C42.91621094 23.80767578 42.70351562 24.80089844 42.484375 25.82421875 C42.29584961 26.72229248 42.10732422 27.62036621 41.91308594 28.5456543 C40.1779262 33.209708 36.83212894 35.34740022 32.453125 37.359375 C31.18662109 37.94912109 31.18662109 37.94912109 29.89453125 38.55078125 C29.02183594 38.94652344 28.14914063 39.34226563 27.25 39.75 C26.36183594 40.16121094 25.47367188 40.57242188 24.55859375 40.99609375 C22.3758868 42.00530234 20.18978334 43.00626334 18 44 C17.49440092 42.56445975 16.9957251 41.1264798 16.5 39.6875 C16.2215625 38.88699219 15.943125 38.08648437 15.65625 37.26171875 C15 35 15 35 15 32 C15.74765625 31.74089844 16.4953125 31.48179688 17.265625 31.21484375 C23.00493053 28.85385761 23.00493053 28.85385761 26.91357422 24.24365234 C28.45089483 19.93724493 29.28332106 15.50647718 30 11 C26.37 11 22.74 11 19 11 C18.82984375 12.09699219 18.6596875 13.19398437 18.484375 14.32421875 C18.24038402 15.77878037 17.99554755 17.23320034 17.75 18.6875 C17.58564453 19.7693457 17.58564453 19.7693457 17.41796875 20.87304688 C16.58008376 25.70191036 15.19715258 28.18491036 12 32 C12.26768169 34.04107286 12.54715547 36.0816982 12.90234375 38.109375 C13.11873188 44.51446352 10.74716106 50.88868556 9 57 C4.38 57 -0.24 57 -5 57 C-4.41311029 50.93622252 -3.49006291 45.13378689 -2.1171875 39.203125 C-1.75101058 37.56907571 -1.38513381 35.93495914 -1.01953125 34.30078125 C-0.44615519 31.76323473 0.13039428 29.22649926 0.71240234 26.69091797 C1.27801845 24.21771516 1.83118011 21.74197849 2.3828125 19.265625 C2.55982697 18.51033508 2.73684143 17.75504517 2.91921997 16.97686768 C3.79346326 13.01616594 4.28341104 9.89417942 3 6 C2.03126968 4.64377755 1.03565785 3.30582947 0 2 C0 1.34 0 0.68 0 0 Z " fill="#1791C8" transform="translate(48,20)"/>
<path d="M0 0 C6.93 0 13.86 0 21 0 C23.31 6.6 25.62 13.2 28 20 C29.32 14.72 30.64 9.44 32 4 C36 8 36 8 36.09814453 10.35644531 C35.90333496 11.25459961 35.70852539 12.15275391 35.5078125 13.078125 C35.28899414 14.13837891 35.07017578 15.19863281 34.84472656 16.29101562 C34.5659668 17.51498047 34.28720703 18.73894531 34 20 C33.68807602 21.44950444 33.37794753 22.89939609 33.06933594 24.34960938 C32.03673971 29.15709414 30.95766217 33.95358798 29.875 38.75 C29.49839911 40.42962053 29.12209489 42.10930761 28.74609375 43.7890625 C27.83414284 47.86014923 26.91819885 51.9303181 26 56 C25.34 56 24.68 56 24 56 C22.66165014 52.21008507 21.33017337 48.41779164 20 44.625 C19.6184375 43.54476562 19.236875 42.46453125 18.84375 41.3515625 C18.4828125 40.3203125 18.121875 39.2890625 17.75 38.2265625 C17.41484375 37.27346191 17.0796875 36.32036133 16.734375 35.33837891 C16 33 16 33 16 31 C15.34 31 14.68 31 14 31 C13.9175 32.134375 13.835 33.26875 13.75 34.4375 C12.92601156 42.08706433 10.84026285 49.54479563 9 57 C4.05 57 -0.9 57 -6 57 C-5.6918335 55.63794434 -5.38366699 54.27588867 -5.06616211 52.87255859 C-3.92375235 47.80960304 -2.79600097 42.74347535 -1.67260742 37.67626953 C-1.18472943 35.48527443 -0.69290177 33.29515488 -0.19702148 31.10595703 C0.5158302 27.95568169 1.21433128 24.8025115 1.91015625 21.6484375 C2.13405533 20.67321136 2.35795441 19.69798523 2.58863831 18.69320679 C4.27039466 10.96385036 4.20790436 7.01317393 0 0 Z " fill="#000000" transform="translate(15,20)"/>
</svg>
